# xmcd CD database file
#
# Track frame offsets:
#	150
#	10485
#	26527
#	42912
#	65510
#	86537
#	125570
#	155180
#	172780
#
# Disc length: 2531 seconds
#
# Revision: 6
# Processed by: cddbd v1.5.2PL0 Copyright (c) Steve Scherf et al.
# Submitted via: CDex 1.51
#
DISCID=6f09e109
DTITLE=Tom Waits - Foreign Affairs
DYEAR=1977
DGENRE=Rock
TTITLE0=Cinny's Waltz
TTITLE1=Muriel
TTITLE2=I Never Talk To Strangers
TTITLE3=Medley: Jack and Neal - California, Here I Come
TTITLE4=A Sight For Sore Eyes
TTITLE5=Potter's Field
TTITLE6=Burma-Shave
TTITLE7=Barber Shop
TTITLE8=Foreign Affair
EXTD=YEAR: 1977
EXTT0=
EXTT1=
EXTT2=
EXTT3=
EXTT4=
EXTT5=
EXTT6=
EXTT7=
EXTT8=
PLAYORDER=
